<svg width="95" height="95" viewBox="0 0 95 95" fill="none" xmlns="http://www.w3.org/2000/svg">
<path d="M57.7422 63.3139L63.3393 57.7188L87.1269 81.5064L81.5298 87.1015L57.7422 63.3139Z" fill="black"/>
<path d="M39.5834 71.2503C57.0724 71.2503 71.25 57.0727 71.25 39.5837C71.25 22.0946 57.0724 7.91699 39.5834 7.91699C22.0943 7.91699 7.91669 22.0946 7.91669 39.5837C7.91669 57.0727 22.0943 71.2503 39.5834 71.2503Z" fill="#2A2AD1"/>
<path d="M64.224 69.9438L69.8191 64.3467L87.0299 81.5575L81.4328 87.1546L64.224 69.9438Z" fill="#E6E6FA"/>
<path d="M39.5834 65.3128C53.7932 65.3128 65.3125 53.7935 65.3125 39.5837C65.3125 25.3738 53.7932 13.8545 39.5834 13.8545C25.3735 13.8545 13.8542 25.3738 13.8542 39.5837C13.8542 53.7935 25.3735 65.3128 39.5834 65.3128Z" fill="#E6E6FA"/>
<path d="M53.2396 28.1038C49.875 24.1455 44.9271 21.7705 39.5833 21.7705C34.2396 21.7705 29.2917 24.1455 25.9271 28.1038C25.1354 28.8955 25.3333 30.2809 26.125 30.8747C26.9167 31.6663 28.3021 31.4684 28.8958 30.6768C31.6667 27.5101 35.4271 25.7288 39.5833 25.7288C43.7396 25.7288 47.5 27.5101 50.2708 30.6768C50.6667 31.0726 51.2604 31.4684 51.8542 31.4684C52.25 31.4684 52.8437 31.2705 53.0417 31.0726C53.8333 30.2809 53.8333 28.8955 53.2396 28.1038Z" fill="#4D4DDB"/>
</svg>
